<svg xmlns="http://www.w3.org/2000/svg" version="1.0" viewBox="0 0 450 90"><path fill="#fc4c69" d="M19.313 12.861c.8 5.1.8 5.1-7.8 6.3-2.6.3-5.9 1.5-7.3 2.7-2.4 1.9-2.6 2.5-2.2 8.1.3 3.9 0 7.3-.9 9.4-1.6 4-.4 9.3 2.7 11.5 1.2.9 2.3 3.6 3 8 1.3 7 4 10.7 8.1 10.7 1.1 0 1.9.7 1.9 1.5 0 1.1-1.2 1.5-5.1 1.5-2.8 0-5.9.4-6.9 1-2.5 1.3-4.3 7.3-3.6 11.5.6 3 1.2 3.5 4.3 4.1 5.6 1.1 63.2-.3 67.6-1.6 7.3-2.1 14.7-10.9 14.7-17.3 0-1.4 1.2-3.2 3.1-4.6 2.3-1.7 2.9-2.9 2.7-4.9l-.3-2.7h-20l-.3 3.1c-.2 2.4.3 3.6 2.2 5.2 6.5 5 .2 12.2-10.7 12.2-4.8 0-5.6-.3-7.5-3-2.1-2.8-2.8-3-8.2-3h-6v-3.8c.1-3.1.6-4 3.3-5.7 2.9-1.9 3.2-2.5 3.1-7 0-2.8-.2-6.6-.3-8.5-.2-1.9.3-4.9.9-6.6 1.6-3.8.7-7.8-2.4-10.9-1.4-1.3-2.7-4.4-3.2-7.1-.6-3.3-1.7-5.3-3.6-6.7-2.6-1.9-3-1.9-10.3-.5-8.3 1.7-7.7 2-8.7-4.6-.2-1.1-.9-2.1-1.6-2.4-1.1-.3-1.2.6-.7 4.1Zm21.1 5.9c.8 1.2 4.3 19 4.4 22 0 1.1-.7 1.8-1.7 1.8-.9 0-3.4 1.6-5.4 3.6l-3.6 3.5-3.7-2.1c-3.6-2.2-3.7-2.2-12.7-.5-5 .9-9.5 1.3-9.9.8-.4-.4-1.5-5.4-2.4-11-1.3-7.4-1.4-10.7-.7-12.1.8-1.6 3.6-2.4 13.3-4.2 6.8-1.2 12.8-2.3 13.3-2.5 2.4-.8 8.4-.4 9.1.7Zm7.4 19.2c0 3.9-.6 3-1.3-1.9-.4-2.7-.3-3.5.3-2.5.5.8 1 2.8 1 4.4Zm-43.1 8.4c.1.7-.3 1-.9.7-.5-.3-1-2.1-.9-3.8.1-3.1.1-3.1.9-.7.4 1.4.8 3.1.9 3.8Zm42 4.7c1.7 9.7 1.6 9.8-14.7 12.9-15.3 2.9-19.7 3.2-20.8 1.4-.5-.7-1.3-4.1-2-7.6-.9-4.7-.9-6.4 0-6.7.6-.2 4.7-1.1 9.1-1.9 7.9-1.4 8-1.4 11.7 1 2.1 1.3 4.2 2.4 4.7 2.4s2.1-1.5 3.6-3.3c2.5-2.8 4.7-4.4 6.6-4.6.4-.1 1.2 2.8 1.8 6.4Zm44.5 11c-1 2.4-3.8 3.5-9.3 3.5-3.9 0-5.3-.4-6.1-1.9-.5-1.1-1-2.2-1-2.5 0-.3 3.8-.6 8.5-.6 7.2 0 8.3.2 7.9 1.5Zm-50.4 6.5v4h-10.5c-8.6 0-10.7-.3-11.2-1.5-.3-.9-.3-1.8 0-2.1.2-.3 5.1-1.3 10.8-2.3 5.7-1.1 10.5-1.9 10.7-2 .1-.1.2 1.7.2 3.9Zm44.4 2.2c-.4 1.8-1.4 4.6-2.3 6.3-1.4 2.4-2.3 2.9-4.5 2.7-2.9-.4-6.6 2.1-6.6 4.5 0 .9-1.7 1.3-6.5 1.3-5.8 0-6.5-.2-6.5-2 0-1.7.7-2 4.9-2 2.7 0 6.2-.5 7.8-1.1 4.2-1.6 8.2-5.8 8.9-9.6.5-2.6 1.1-3.3 3-3.3 2.1 0 2.3.3 1.8 3.2Zm-31.3 4.8c1.5.8 1.9 2.2 1.9 6v5h-9.5c-5.7 0-9.5-.4-9.5-1 0-1.9-4-5-6.6-5-1.5 0-3.8 1.2-5.6 3-2.8 2.9-3.3 3-11.9 3h-8.9v-4.4c0-7.6 0-7.6 25.6-7.6 13.6 0 23.3.4 24.5 1Zm23.4 7c-.3.5-1.1 1-1.6 1-.6 0-.7-.5-.4-1 .3-.6 1.1-1 1.6-1 .6 0 .7.4.4 1Zm-44.4 2 2.4 1.9-4.7.1c-4.9 0-6.1-1.1-3-2.9 2.4-1.4 2.7-1.4 5.3.9Zm4.2-50.4c-.9 2.3 1.3 4 3.2 2.4 1.2-1 1.3-1.6.4-2.6-1.5-1.8-2.8-1.8-3.6.2Zm-19.3 4.4c0 1.3.7 2 2 2s2-.7 2-2-.7-2-2-2-2 .7-2 2Zm27 39c-1.3.8-1.3 1 0 1.4.8.3 2.6.6 4 .8 1.9.2 2.6 1 2.8 3 .5 4 2.2 3.4 2.2-.7 0-4.7-4.8-7.2-9-4.5Zm26-61.6c0 1.5 3.2 7.6 4 7.6 1.3 0 1.3-.6-.2-4.7-.7-1.8-1.8-3.3-2.5-3.3s-1.3.2-1.3.4Zm11 3.6c0 2.2.5 4 1 4 .6 0 1-1.8 1-4s-.4-4-1-4c-.5 0-1 1.8-1 4Zm9.9-1.4c-.5 1.5-1.2 3-1.4 3.5-.3.4-.1 1 .4 1.4 1 .6 4.1-4.4 4.1-6.5 0-2-2.1-.9-3.1 1.6Zm-18.1 11.8c-3 1.5-4.9 7.1-3.6 10.8.9 2.5 11.3 12.8 13 12.8.4 0 3.7-2.9 7.4-6.4 6.4-6.1 6.7-6.6 6.1-10.1-1.2-7.1-6-9.8-10.6-5.9-2.8 2.3-2.9 2.3-4.5.5-2.3-2.5-4.9-3.1-7.8-1.7Zm6.7 4.8 2.7 3.2 2.5-3.2c2.8-3.6 5.7-4.1 7.3-1.3 2.5 4.7-.1 10.2-7.2 15.2l-3 2.2-5.4-5.4c-5.8-5.7-6.7-8.8-3.7-12.1 2.3-2.5 3.7-2.3 6.8 1.4Z" style="transform-box:fill-box;transform-origin:50% 50%"/><text style="fill:#fc4c69;font-family:Arial,sans-serif;font-size:43px;white-space:pre" transform="translate(6.27 -64.4)"><tspan x="104.3" y="96.3">eai.cc = Easy AI</tspan><tspan x="104.3" dy="1em">​</tspan><tspan>Content Creation</tspan></text></svg>